<mxfile host="Electron" agent="Mozilla/5.0 (Windows NT 10.0; Win64; x64) AppleWebKit/537.36 (KHTML, like Gecko) draw.io/24.7.8 Chrome/128.0.6613.36 Electron/32.0.1 Safari/537.36" version="24.7.8">
  <diagram name="PÃ¡gina-1" id="1QB3ZOOMAZCcU8J9XIPx">
    <mxGraphModel dx="1562" dy="917" grid="1" gridSize="10" guides="1" tooltips="1" connect="1" arrows="1" fold="1" page="1" pageScale="1" pageWidth="827" pageHeight="1169" math="0" shadow="0">
      <root>
        <mxCell id="0" />
        <mxCell id="1" parent="0" />
        <mxCell id="-R4ss9E-UghBabYP_VlL-17" style="edgeStyle=orthogonalEdgeStyle;rounded=0;orthogonalLoop=1;jettySize=auto;html=1;entryX=0.5;entryY=0;entryDx=0;entryDy=0;dashed=1;" edge="1" parent="1" target="-R4ss9E-UghBabYP_VlL-3">
          <mxGeometry relative="1" as="geometry">
            <mxPoint x="374" y="265" as="sourcePoint" />
            <Array as="points">
              <mxPoint x="534" y="265" />
            </Array>
          </mxGeometry>
        </mxCell>
        <mxCell id="-R4ss9E-UghBabYP_VlL-1" value="REGISTRO" style="ellipse;whiteSpace=wrap;html=1;" vertex="1" parent="1">
          <mxGeometry x="644" y="385" width="100" height="50" as="geometry" />
        </mxCell>
        <mxCell id="-R4ss9E-UghBabYP_VlL-2" value="&lt;font style=&quot;font-size: 22px;&quot;&gt;DIAGRAMA CASOS DE USO PROYECTO HABILIDADES&lt;/font&gt;&lt;div style=&quot;font-size: 22px;&quot;&gt;&lt;br style=&quot;&quot;&gt;&lt;/div&gt;" style="text;html=1;align=center;verticalAlign=top;whiteSpace=wrap;rounded=0;fontSize=16;" vertex="1" parent="1">
          <mxGeometry x="130" y="50" width="580" height="30" as="geometry" />
        </mxCell>
        <mxCell id="-R4ss9E-UghBabYP_VlL-43" style="edgeStyle=orthogonalEdgeStyle;rounded=0;orthogonalLoop=1;jettySize=auto;html=1;exitX=1;exitY=0.5;exitDx=0;exitDy=0;dashed=1;entryX=0;entryY=0.5;entryDx=0;entryDy=0;" edge="1" parent="1" source="-R4ss9E-UghBabYP_VlL-3" target="-R4ss9E-UghBabYP_VlL-1">
          <mxGeometry relative="1" as="geometry">
            <mxPoint x="600" y="410" as="targetPoint" />
          </mxGeometry>
        </mxCell>
        <mxCell id="-R4ss9E-UghBabYP_VlL-3" value="VALIDAR USUARIO" style="ellipse;whiteSpace=wrap;html=1;" vertex="1" parent="1">
          <mxGeometry x="484" y="385" width="100" height="50" as="geometry" />
        </mxCell>
        <mxCell id="-R4ss9E-UghBabYP_VlL-4" value="LISTAR OFERTAS POR USUARIO" style="ellipse;whiteSpace=wrap;html=1;" vertex="1" parent="1">
          <mxGeometry x="268" y="245" width="100" height="50" as="geometry" />
        </mxCell>
        <mxCell id="-R4ss9E-UghBabYP_VlL-19" style="edgeStyle=orthogonalEdgeStyle;rounded=0;orthogonalLoop=1;jettySize=auto;html=1;dashed=1;" edge="1" parent="1" source="-R4ss9E-UghBabYP_VlL-6">
          <mxGeometry relative="1" as="geometry">
            <mxPoint x="534" y="340" as="targetPoint" />
          </mxGeometry>
        </mxCell>
        <mxCell id="-R4ss9E-UghBabYP_VlL-6" value="BUSCAR OFERTAS" style="ellipse;whiteSpace=wrap;html=1;" vertex="1" parent="1">
          <mxGeometry x="268" y="315" width="100" height="50" as="geometry" />
        </mxCell>
        <mxCell id="-R4ss9E-UghBabYP_VlL-20" style="edgeStyle=orthogonalEdgeStyle;rounded=0;orthogonalLoop=1;jettySize=auto;html=1;entryX=0;entryY=0.5;entryDx=0;entryDy=0;dashed=1;" edge="1" parent="1" source="-R4ss9E-UghBabYP_VlL-7" target="-R4ss9E-UghBabYP_VlL-3">
          <mxGeometry relative="1" as="geometry" />
        </mxCell>
        <mxCell id="-R4ss9E-UghBabYP_VlL-7" value="SOLICITAR INTERCAMBIO" style="ellipse;whiteSpace=wrap;html=1;" vertex="1" parent="1">
          <mxGeometry x="268" y="385" width="100" height="50" as="geometry" />
        </mxCell>
        <mxCell id="-R4ss9E-UghBabYP_VlL-24" style="edgeStyle=orthogonalEdgeStyle;rounded=0;orthogonalLoop=1;jettySize=auto;html=1;dashed=1;" edge="1" parent="1" source="-R4ss9E-UghBabYP_VlL-8">
          <mxGeometry relative="1" as="geometry">
            <mxPoint x="534" y="480" as="targetPoint" />
          </mxGeometry>
        </mxCell>
        <mxCell id="-R4ss9E-UghBabYP_VlL-8" value="ENVIAR MENSAJE" style="ellipse;whiteSpace=wrap;html=1;" vertex="1" parent="1">
          <mxGeometry x="268" y="455" width="100" height="50" as="geometry" />
        </mxCell>
        <mxCell id="-R4ss9E-UghBabYP_VlL-23" style="edgeStyle=orthogonalEdgeStyle;rounded=0;orthogonalLoop=1;jettySize=auto;html=1;dashed=1;" edge="1" parent="1" source="-R4ss9E-UghBabYP_VlL-9">
          <mxGeometry relative="1" as="geometry">
            <mxPoint x="534" y="550" as="targetPoint" />
          </mxGeometry>
        </mxCell>
        <mxCell id="-R4ss9E-UghBabYP_VlL-9" value="RECIBIR MENSAJE" style="ellipse;whiteSpace=wrap;html=1;" vertex="1" parent="1">
          <mxGeometry x="268" y="525" width="100" height="50" as="geometry" />
        </mxCell>
        <mxCell id="-R4ss9E-UghBabYP_VlL-22" style="edgeStyle=orthogonalEdgeStyle;rounded=0;orthogonalLoop=1;jettySize=auto;html=1;entryX=0.5;entryY=1;entryDx=0;entryDy=0;entryPerimeter=0;dashed=1;" edge="1" parent="1" source="-R4ss9E-UghBabYP_VlL-10" target="-R4ss9E-UghBabYP_VlL-3">
          <mxGeometry relative="1" as="geometry">
            <mxPoint x="534" y="445" as="targetPoint" />
          </mxGeometry>
        </mxCell>
        <mxCell id="-R4ss9E-UghBabYP_VlL-10" value="VALORAR INTERCAMBIO" style="ellipse;whiteSpace=wrap;html=1;" vertex="1" parent="1">
          <mxGeometry x="268" y="605" width="100" height="50" as="geometry" />
        </mxCell>
        <mxCell id="-R4ss9E-UghBabYP_VlL-32" style="edgeStyle=orthogonalEdgeStyle;rounded=0;orthogonalLoop=1;jettySize=auto;html=1;" edge="1" parent="1" target="-R4ss9E-UghBabYP_VlL-1">
          <mxGeometry relative="1" as="geometry">
            <mxPoint x="654" y="395" as="targetPoint" />
            <mxPoint x="99" y="370" as="sourcePoint" />
            <Array as="points">
              <mxPoint x="99" y="200" />
              <mxPoint x="694" y="200" />
            </Array>
          </mxGeometry>
        </mxCell>
        <mxCell id="-R4ss9E-UghBabYP_VlL-39" style="edgeStyle=orthogonalEdgeStyle;rounded=0;orthogonalLoop=1;jettySize=auto;html=1;entryX=0;entryY=0.5;entryDx=0;entryDy=0;" edge="1" parent="1" target="-R4ss9E-UghBabYP_VlL-10">
          <mxGeometry relative="1" as="geometry">
            <mxPoint x="214" y="635" as="targetPoint" />
            <mxPoint x="99" y="435" as="sourcePoint" />
            <Array as="points">
              <mxPoint x="99" y="630" />
            </Array>
          </mxGeometry>
        </mxCell>
        <mxCell id="-R4ss9E-UghBabYP_VlL-36" style="edgeStyle=orthogonalEdgeStyle;rounded=0;orthogonalLoop=1;jettySize=auto;html=1;" edge="1" parent="1">
          <mxGeometry relative="1" as="geometry">
            <mxPoint x="268" y="270" as="targetPoint" />
            <mxPoint x="102" y="270" as="sourcePoint" />
          </mxGeometry>
        </mxCell>
        <mxCell id="-R4ss9E-UghBabYP_VlL-37" style="edgeStyle=orthogonalEdgeStyle;rounded=0;orthogonalLoop=1;jettySize=auto;html=1;" edge="1" parent="1">
          <mxGeometry relative="1" as="geometry">
            <mxPoint x="268" y="339.5" as="targetPoint" />
            <mxPoint x="102" y="339.5" as="sourcePoint" />
          </mxGeometry>
        </mxCell>
        <mxCell id="-R4ss9E-UghBabYP_VlL-38" style="edgeStyle=orthogonalEdgeStyle;rounded=0;orthogonalLoop=1;jettySize=auto;html=1;entryX=0;entryY=0.5;entryDx=0;entryDy=0;" edge="1" parent="1" source="-R4ss9E-UghBabYP_VlL-42" target="-R4ss9E-UghBabYP_VlL-7">
          <mxGeometry relative="1" as="geometry">
            <mxPoint x="144" y="409.5" as="sourcePoint" />
            <mxPoint x="260" y="409.5" as="targetPoint" />
          </mxGeometry>
        </mxCell>
        <mxCell id="-R4ss9E-UghBabYP_VlL-40" style="edgeStyle=orthogonalEdgeStyle;rounded=0;orthogonalLoop=1;jettySize=auto;html=1;" edge="1" parent="1">
          <mxGeometry relative="1" as="geometry">
            <mxPoint x="270" y="479.5" as="targetPoint" />
            <mxPoint x="104" y="479.5" as="sourcePoint" />
          </mxGeometry>
        </mxCell>
        <mxCell id="-R4ss9E-UghBabYP_VlL-41" style="edgeStyle=orthogonalEdgeStyle;rounded=0;orthogonalLoop=1;jettySize=auto;html=1;" edge="1" parent="1">
          <mxGeometry relative="1" as="geometry">
            <mxPoint x="270" y="550" as="targetPoint" />
            <mxPoint x="104" y="550" as="sourcePoint" />
          </mxGeometry>
        </mxCell>
        <mxCell id="-R4ss9E-UghBabYP_VlL-42" value="" style="shape=umlActor;verticalLabelPosition=bottom;verticalAlign=top;html=1;outlineConnect=0;" vertex="1" parent="1">
          <mxGeometry x="84" y="380" width="30" height="60" as="geometry" />
        </mxCell>
      </root>
    </mxGraphModel>
  </diagram>
</mxfile>
